<svg width="507" height="390" viewBox="0 0 507 390" fill="none" xmlns="http://www.w3.org/2000/svg">
<path d="M499.215 388.736H8V390H499.215V388.736Z" fill="#3F3D56"/>
<path d="M328.319 30.3404H295.487V63.2091H328.319V30.3404Z" fill="#F0F0F0"/>
<path d="M423.658 54.3598C422.159 54.3598 420.694 53.915 419.448 53.0815C418.202 52.248 417.231 51.0634 416.658 49.6774C416.084 48.2914 415.934 46.7663 416.227 45.295C416.519 43.8236 417.24 42.4721 418.3 41.4113C419.36 40.3505 420.71 39.6281 422.179 39.3354C423.649 39.0427 425.173 39.1929 426.557 39.767C427.941 40.3411 429.125 41.3133 429.957 42.5607C430.79 43.808 431.234 45.2745 431.234 46.7747C431.232 48.7857 430.433 50.7137 429.013 52.1357C427.592 53.5577 425.666 54.3576 423.658 54.3598ZM423.658 40.4538C422.409 40.4538 421.188 40.8245 420.15 41.5191C419.111 42.2136 418.302 43.2008 417.824 44.3558C417.346 45.5108 417.221 46.7817 417.465 48.0079C417.709 49.234 418.31 50.3603 419.193 51.2443C420.076 52.1283 421.201 52.7303 422.426 52.9742C423.65 53.2181 424.92 53.0929 426.074 52.6145C427.227 52.1361 428.213 51.3259 428.907 50.2864C429.601 49.247 429.971 48.0249 429.971 46.7747C429.969 45.0989 429.304 43.4923 428.12 42.3073C426.936 41.1223 425.331 40.4557 423.658 40.4538Z" fill="#3F3D56"/>
<path d="M105.055 269.903L144.309 208.104L56.3989 152.14L11 223.614L83.7125 269.903H105.055Z" fill="#F0F0F0"/>
<path d="M160.681 289.182H63.4483V269.587H160.681V289.182ZM64.7111 287.917H159.418V270.851H64.7111V287.917Z" fill="#3F3D56"/>
<path d="M148.685 285.705C152.172 285.705 154.999 282.875 154.999 279.384C154.999 275.893 152.172 273.063 148.685 273.063C145.198 273.063 142.371 275.893 142.371 279.384C142.371 282.875 145.198 285.705 148.685 285.705Z" fill="#8F2B6C"/>
<path d="M131.006 285.705C134.493 285.705 137.32 282.875 137.32 279.384C137.32 275.893 134.493 273.063 131.006 273.063C127.519 273.063 124.692 275.893 124.692 279.384C124.692 282.875 127.519 285.705 131.006 285.705Z" fill="#8F2B6C"/>
<path d="M113.327 285.705C116.815 285.705 119.641 282.875 119.641 279.384C119.641 275.893 116.815 273.063 113.327 273.063C109.84 273.063 107.014 275.893 107.014 279.384C107.014 282.875 109.84 285.705 113.327 285.705Z" fill="#8F2B6C"/>
<path d="M95.6488 285.705C99.1358 285.705 101.963 282.875 101.963 279.384C101.963 275.893 99.1358 273.063 95.6488 273.063C92.1618 273.063 89.335 275.893 89.335 279.384C89.335 282.875 92.1618 285.705 95.6488 285.705Z" fill="#8F2B6C"/>
<path d="M77.9701 285.705C81.4571 285.705 84.2839 282.875 84.2839 279.384C84.2839 275.893 81.4571 273.063 77.9701 273.063C74.4831 273.063 71.6563 275.893 71.6563 279.384C71.6563 282.875 74.4831 285.705 77.9701 285.705Z" fill="#8F2B6C"/>
<path d="M276.224 71.4263V23.3874H300.217V0H182.78V117.569H283.169V106.074C283.169 103.931 283.591 101.809 284.41 99.8297C285.229 97.85 286.43 96.0512 287.943 94.536C289.457 93.0209 291.253 91.819 293.231 90.9989C295.208 90.1789 297.328 89.7569 299.468 89.7569H300.217V71.4263H276.224Z" fill="#F0F0F0"/>
<path d="M406.289 303.404H327.997V319.838H406.289V303.404Z" fill="#8F2B6C"/>
<path d="M423.336 222.496H308.425V237.666H423.336V222.496Z" fill="#F0F0F0"/>
<path d="M443.026 390H299.468C294.98 389.995 290.676 388.207 287.502 385.03C284.328 381.853 282.543 377.544 282.538 373.051V106.074C282.543 101.58 284.328 97.2722 287.502 94.0947C290.676 90.9172 294.98 89.1299 299.468 89.1248H443.026C447.515 89.1299 451.818 90.9172 454.992 94.0947C458.166 97.2722 459.951 101.58 459.956 106.074V373.051C459.951 377.544 458.166 381.853 454.992 385.03C451.818 388.207 447.515 389.995 443.026 390ZM299.468 90.389C295.314 90.3937 291.332 92.0477 288.395 94.9882C285.458 97.9287 283.805 101.915 283.801 106.074V373.051C283.805 377.209 285.458 381.196 288.395 384.137C291.332 387.077 295.314 388.731 299.468 388.736H443.026C447.18 388.731 451.162 387.077 454.1 384.137C457.037 381.196 458.689 377.209 458.694 373.051V106.074C458.689 101.915 457.037 97.9287 454.1 94.9882C451.162 92.0477 447.18 90.3937 443.026 90.389H299.468Z" fill="#3F3D56"/>
<path d="M354.2 101.767C353.451 101.767 352.718 101.544 352.095 101.127C351.472 100.711 350.987 100.118 350.7 99.4254C350.413 98.7324 350.338 97.9699 350.484 97.2342C350.631 96.4985 350.991 95.8227 351.521 95.2923C352.051 94.7619 352.726 94.4007 353.461 94.2544C354.196 94.1081 354.957 94.1832 355.65 94.4702C356.342 94.7573 356.933 95.2433 357.35 95.867C357.766 96.4907 357.988 97.224 357.988 97.9741C357.987 98.9796 357.588 99.9436 356.877 100.655C356.167 101.366 355.204 101.766 354.2 101.767ZM354.2 95.4457C353.7 95.4457 353.212 95.594 352.797 95.8718C352.381 96.1496 352.058 96.5445 351.867 97.0065C351.675 97.4685 351.625 97.9769 351.723 98.4673C351.82 98.9578 352.061 99.4083 352.414 99.7619C352.767 100.115 353.217 100.356 353.707 100.454C354.197 100.551 354.705 100.501 355.166 100.31C355.628 100.119 356.022 99.7945 356.3 99.3788C356.577 98.963 356.725 98.4741 356.725 97.9741C356.725 97.3037 356.458 96.661 355.985 96.187C355.511 95.713 354.869 95.4464 354.2 95.4457Z" fill="#3F3D56"/>
<path d="M391.451 97.342H363.671V98.6062H391.451V97.342Z" fill="#3F3D56"/>
<path d="M448.592 107.455V158.023C435.195 158.022 422.348 152.694 412.876 143.211C403.403 133.728 398.082 120.867 398.081 107.455H448.592Z" fill="#8F2B6C"/>
<path d="M449.223 372.934H293.271V106.823H449.223V372.934ZM294.534 371.669H447.96V108.088H294.534V371.669Z" fill="#3F3D56"/>
<path opacity="0.1" d="M411.971 154.862C421.386 154.862 429.019 147.221 429.019 137.796C429.019 128.37 421.386 120.729 411.971 120.729C402.556 120.729 394.924 128.37 394.924 137.796C394.924 147.221 402.556 154.862 411.971 154.862Z" fill="black"/>
<path d="M409.446 156.759C418.861 156.759 426.493 149.118 426.493 139.692C426.493 130.267 418.861 122.626 409.446 122.626C400.031 122.626 392.398 130.267 392.398 139.692C392.398 149.118 400.031 156.759 409.446 156.759Z" fill="#8F2B6C"/>
<path d="M324.209 117.569H300.217V126.418H324.209V117.569Z" fill="#3F3D56"/>
<path d="M337.468 201.637H313.476V210.486H337.468V201.637Z" fill="#3F3D56"/>
<path d="M429.65 234.506H313.476V218.071H429.65V234.506ZM314.738 233.241H428.387V219.335H314.738V233.241Z" fill="#3F3D56"/>
<path d="M423.336 270.535H308.425V285.705H423.336V270.535Z" fill="#F0F0F0"/>
<path d="M337.468 249.676H313.476V258.525H337.468V249.676Z" fill="#3F3D56"/>
<path d="M429.65 282.545H313.476V266.11H429.65V282.545ZM314.738 281.28H428.387V267.374H314.738V281.28Z" fill="#3F3D56"/>
<path d="M411.34 316.045H331.786V298.347H411.34V316.045ZM333.049 314.781H410.077V299.611H333.049V314.781Z" fill="#3F3D56"/>
<path d="M426.493 228.185C426.493 229.486 426.092 230.756 425.344 231.82C424.597 232.885 423.539 233.692 422.316 234.133C421.093 234.573 419.764 234.625 418.51 234.281C417.256 233.937 416.139 233.214 415.311 232.211L415.305 232.205C414.701 231.472 414.271 230.612 414.045 229.69C413.819 228.767 413.803 227.805 414 226.876C414.196 225.947 414.599 225.074 415.179 224.322C415.759 223.57 416.501 222.958 417.349 222.533C418.197 222.108 419.131 221.879 420.079 221.865C421.028 221.85 421.968 222.05 422.829 222.449C423.69 222.848 424.45 223.436 425.053 224.17C425.655 224.904 426.085 225.764 426.31 226.687C426.31 226.688 426.31 226.688 426.31 226.689C426.311 226.69 426.311 226.691 426.312 226.691C426.312 226.692 426.313 226.692 426.314 226.693C426.315 226.693 426.315 226.693 426.316 226.693C426.433 227.182 426.492 227.682 426.493 228.185Z" fill="#8F2B6C"/>
<path opacity="0.1" d="M426.493 228.185C426.493 229.486 426.092 230.756 425.344 231.82C424.597 232.885 423.539 233.692 422.316 234.133C421.093 234.573 419.764 234.625 418.51 234.281C417.256 233.937 416.139 233.214 415.311 232.211L415.305 232.205C415.188 231.716 415.129 231.216 415.128 230.713C415.128 229.412 415.53 228.142 416.277 227.078C417.025 226.013 418.082 225.206 419.306 224.765C420.529 224.325 421.858 224.273 423.111 224.617C424.365 224.961 425.482 225.684 426.31 226.687C426.31 226.688 426.31 226.688 426.31 226.689C426.311 226.69 426.311 226.691 426.312 226.691C426.312 226.692 426.313 226.692 426.314 226.693C426.315 226.693 426.315 226.693 426.316 226.693C426.433 227.182 426.492 227.682 426.493 228.185Z" fill="black"/>
<path d="M422.705 238.298C426.192 238.298 429.019 235.468 429.019 231.977C429.019 228.486 426.192 225.656 422.705 225.656C419.218 225.656 416.391 228.486 416.391 231.977C416.391 235.468 419.218 238.298 422.705 238.298Z" fill="#8F2B6C"/>
<path d="M426.493 276.224C426.493 277.525 426.092 278.794 425.344 279.859C424.597 280.923 423.539 281.731 422.316 282.171C421.093 282.612 419.764 282.664 418.51 282.32C417.256 281.976 416.139 281.253 415.311 280.25L415.305 280.244C414.701 279.511 414.271 278.651 414.045 277.729C413.819 276.806 413.803 275.844 414 274.915C414.196 273.986 414.599 273.113 415.179 272.361C415.759 271.609 416.501 270.997 417.349 270.572C418.197 270.147 419.131 269.918 420.079 269.904C421.028 269.889 421.968 270.089 422.829 270.488C423.69 270.887 424.45 271.475 425.053 272.209C425.655 272.942 426.085 273.803 426.31 274.726C426.31 274.726 426.31 274.727 426.31 274.728C426.311 274.729 426.311 274.73 426.312 274.73C426.312 274.731 426.313 274.731 426.314 274.731C426.315 274.732 426.315 274.732 426.316 274.732C426.433 275.221 426.492 275.721 426.493 276.224Z" fill="#8F2B6C"/>
<path opacity="0.1" d="M426.493 276.224C426.493 277.525 426.092 278.794 425.344 279.859C424.597 280.923 423.539 281.731 422.316 282.171C421.093 282.612 419.764 282.664 418.51 282.32C417.256 281.976 416.139 281.253 415.311 280.25L415.305 280.244C415.188 279.755 415.129 279.254 415.128 278.752C415.128 277.451 415.53 276.181 416.277 275.117C417.025 274.052 418.082 273.245 419.306 272.804C420.529 272.364 421.858 272.312 423.111 272.656C424.365 273 425.482 273.723 426.31 274.726C426.31 274.726 426.31 274.727 426.31 274.728C426.311 274.729 426.311 274.73 426.312 274.73C426.312 274.731 426.313 274.731 426.314 274.731C426.315 274.732 426.315 274.732 426.316 274.732C426.433 275.221 426.492 275.721 426.493 276.224Z" fill="black"/>
<path d="M422.705 286.337C426.192 286.337 429.019 283.507 429.019 280.016C429.019 276.525 426.192 273.695 422.705 273.695C419.218 273.695 416.391 276.525 416.391 280.016C416.391 283.507 419.218 286.337 422.705 286.337Z" fill="#8F2B6C"/>
<path d="M245.286 159.919H228.87V143.485H245.286V159.919ZM230.133 158.655H244.024V144.749H230.133V158.655Z" fill="#3F3D56"/>
<path d="M495.314 282.545H478.898V266.11H495.314V282.545ZM480.161 281.28H494.051V267.374H480.161V281.28Z" fill="#3F3D56"/>
<path d="M171.416 172.35L174.233 173.869L183.819 179.041L199.294 187.388L208.313 170.637C209.162 169.063 209.693 167.337 209.876 165.557C210.058 163.778 209.888 161.979 209.375 160.266C208.862 158.552 208.017 156.956 206.887 155.57C205.758 154.184 204.366 153.034 202.792 152.187C199.429 150.369 195.576 149.666 191.788 150.181C188 150.695 184.474 152.4 181.716 155.05L181.711 155.054C180.354 156.359 179.209 157.868 178.317 159.526L171.416 172.35Z" fill="#2F2E41"/>
<path d="M213.654 343.185L211.764 364.006L204.673 364.952L199.947 341.292L213.654 343.185Z" fill="#FFB8B8"/>
<path d="M202.783 364.952C202.783 364.952 211.764 360.22 213.654 364.006C213.654 364.006 212.236 375.363 217.908 376.782C223.58 378.202 225.944 388.139 217.908 389.086C209.873 390.032 204.673 387.193 201.837 387.193C199.001 387.193 201.837 377.256 201.837 377.256L202.783 364.952Z" fill="#2F2E41"/>
<path d="M156.461 343.185L158.352 364.006L165.442 364.952L170.168 341.292L156.461 343.185Z" fill="#FFB8B8"/>
<path d="M167.332 364.952C167.332 364.952 158.352 360.22 156.461 364.006C156.461 364.006 157.879 375.363 152.207 376.782C146.535 378.202 144.172 388.139 152.207 389.086C160.242 390.032 165.442 387.193 168.278 387.193C171.114 387.193 168.278 377.256 168.278 377.256L167.332 364.952Z" fill="#2F2E41"/>
<path d="M195.22 176.145C202.007 176.145 207.509 170.637 207.509 163.842C207.509 157.047 202.007 151.539 195.22 151.539C188.433 151.539 182.931 157.047 182.931 163.842C182.931 170.637 188.433 176.145 195.22 176.145Z" fill="#FFB8B8"/>
<path d="M155.988 187.975L165.914 203.591L177.731 202.644L197.111 204.064C197.111 204.064 198.94 200.401 200.434 196.838C201.251 195.059 201.88 193.198 202.31 191.288C202.783 187.975 196.165 184.663 196.165 184.663C196.165 184.663 195.905 184.615 195.471 184.511C194.894 184.374 194.005 184.147 193.032 183.816C190.834 183.068 188.191 181.8 187.657 179.931C186.712 176.618 193.802 171.886 193.802 171.886L185.294 163.842C185.294 163.842 177.736 174.352 168.557 176.746C168.024 176.887 167.485 176.997 166.94 177.077C166.912 177.082 166.888 177.087 166.86 177.091C156.934 178.511 155.988 187.975 155.988 187.975Z" fill="#FFB8B8"/>
<path d="M161.188 183.716L155.988 187.975C155.988 187.975 151.734 208.323 153.152 214.001C154.57 219.68 152.68 224.885 152.68 225.831C152.68 226.778 148.426 262.268 148.426 262.268C148.426 262.268 139.918 281.196 148.898 279.303C157.879 277.41 154.57 258.482 154.57 258.482L165.442 225.358V197.439L161.188 183.716Z" fill="#FFB8B8"/>
<path d="M198.529 187.502L202.31 190.341L204.201 230.09L218.381 264.16C218.381 264.16 228.78 280.723 222.162 281.196C215.545 281.669 211.291 264.16 211.291 264.16L198.529 231.51L196.638 199.805L198.529 187.502Z" fill="#FFB8B8"/>
<path d="M174.895 190.341C174.895 190.341 184.349 196.966 199.474 194.6C199.474 194.6 203.728 203.118 201.365 207.85C199.001 212.582 204.201 223.938 205.146 225.358C206.091 226.778 216.963 256.116 220.744 287.821C224.526 319.525 234.924 341.292 225.944 344.132C216.963 346.971 198.529 350.283 196.638 347.444C194.747 344.605 191.911 274.098 191.911 274.098L186.712 301.07C186.712 301.07 193.802 346.971 188.603 347.917C183.403 348.864 150.789 346.024 151.734 340.346C152.68 334.668 162.133 304.856 162.133 304.856C162.133 304.856 161.66 245.232 171.114 233.876C171.114 233.876 174.895 227.724 169.696 219.68C164.496 211.635 164.969 198.859 164.969 198.859C164.969 198.859 168.75 198.859 174.895 190.341Z" fill="#2F2E41"/>
<path d="M166.94 177.077L174.895 194.6L176.786 193.654L168.556 176.746L166.94 177.077Z" fill="#2F2E41"/>
<path d="M193.032 183.816L199.001 196.966L200.434 196.838L199.947 194.6L195.471 184.511C194.894 184.374 194.005 184.147 193.032 183.816Z" fill="#2F2E41"/>
<path d="M174.233 173.869C174.688 175.333 175.564 176.63 176.751 177.598C177.939 178.565 179.385 179.161 180.909 179.309C182.433 179.458 183.967 179.153 185.319 178.433C186.671 177.712 187.78 176.609 188.508 175.26C182.529 167.433 187.657 162.517 197.371 158.797C198.102 157.438 198.413 155.891 198.264 154.354C198.115 152.817 197.513 151.36 196.534 150.166C193.857 149.823 191.137 150.084 188.573 150.929C186.009 151.774 183.666 153.182 181.716 155.05L181.711 155.054L174.81 167.869C174.319 168.78 174.014 169.78 173.915 170.81C173.816 171.841 173.924 172.881 174.233 173.869Z" fill="#2F2E41"/>
<path d="M187.894 168.101C188.807 168.101 189.548 166.829 189.548 165.261C189.548 163.693 188.807 162.422 187.894 162.422C186.98 162.422 186.239 163.693 186.239 165.261C186.239 166.829 186.98 168.101 187.894 168.101Z" fill="#FFB8B8"/>
<path d="M192.824 160.629L207.032 167.074L209.637 161.32C209.188 159.217 208.248 157.25 206.895 155.58L197.116 151.146L192.824 160.629Z" fill="#2F2E41"/>
<path d="M226.976 287.601C230.463 287.601 233.29 284.771 233.29 281.28C233.29 277.789 230.463 274.959 226.976 274.959C223.489 274.959 220.662 277.789 220.662 281.28C220.662 284.771 223.489 287.601 226.976 287.601Z" fill="#8F2B6C"/>
<path d="M24.2751 325.177C26.554 325.177 28.4014 323.327 28.4014 321.046C28.4014 318.765 26.554 316.915 24.2751 316.915C21.9962 316.915 20.1488 318.765 20.1488 321.046C20.1488 323.327 21.9962 325.177 24.2751 325.177Z" fill="#FF6584"/>
<path d="M45.1225 342.576H43.8597V389.611H45.1225V342.576Z" fill="#3F3D56"/>
<path d="M44.4912 349.227C48.1606 349.227 51.1351 346.249 51.1351 342.576C51.1351 338.902 48.1606 335.924 44.4912 335.924C40.8219 335.924 37.8473 338.902 37.8473 342.576C37.8473 346.249 40.8219 349.227 44.4912 349.227Z" fill="#3F3D56"/>
<path d="M44.4912 371.564C44.4912 371.564 43.5421 351.128 24.0849 353.503L44.4912 371.564Z" fill="#3F3D56"/>
</svg>
